<?xml version="1.0" encoding="UTF-8"?>
<svg xmlns="http://www.w3.org/2000/svg" width="1253" height="132" version="1.1" viewBox="0 0 1253 132">
  <!-- Generator: Adobe Illustrator 28.7.1, SVG Export Plug-In . SVG Version: 1.2.0 Build 142)  -->
  <g>
    <g id="Layer_1">
      <g>
        <path d="M1123.69,129.13V.97h26.49l37.41,97.55h1.08L1226.26.97h26.49v128.16h-19.33V56.64l1.07-22.73h-1.07l-37.42,95.23h-15.57l-37.41-95.23h-1.07l1.07,22.73v72.5h-19.33Z"/>
        <path d="M1034.14,129.13V.97h19.69v109.55h55.13v18.62h-74.82Z"/>
        <path d="M941.02,129.13V.97h19.33v75.54l38.66-38.66h23.98v1.07l-35.26,34.9,36.51,54.24v1.07h-22.91l-27.21-41.89-13.78,13.6v28.28h-19.33Z"/>
        <path d="M881.84,132c-9.43,0-17.72-2.15-24.88-6.44-7.16-4.3-12.77-10.08-16.83-17.36-4.06-7.4-6.09-15.63-6.09-24.7s2.03-17.24,6.09-24.52c4.06-7.4,9.67-13.25,16.83-17.54,7.16-4.3,15.45-6.44,24.88-6.44s17.54,2.21,24.7,6.62c7.16,4.3,12.77,10.08,16.83,17.36,4.06,7.28,6.09,15.45,6.09,24.52s-2.03,17.3-6.09,24.7c-4.06,7.28-9.67,13.07-16.83,17.36s-15.39,6.44-24.7,6.44ZM881.84,114.28c5.01,0,9.67-1.19,13.96-3.58,4.3-2.51,7.76-6.03,10.38-10.56,2.74-4.65,4.12-10.2,4.12-16.65s-1.37-11.93-4.12-16.47c-2.63-4.65-6.09-8.17-10.38-10.56-4.3-2.51-8.95-3.76-13.96-3.76s-9.73,1.25-14.14,3.76c-4.3,2.39-7.82,5.91-10.56,10.56-2.63,4.53-3.94,10.02-3.94,16.47s1.31,11.99,3.94,16.65c2.74,4.53,6.32,8.06,10.74,10.56,4.41,2.39,9.07,3.58,13.96,3.58Z"/>
        <path d="M778.84,132c-9.43,0-17.72-2.15-24.88-6.44-7.16-4.3-12.77-10.08-16.83-17.36-4.06-7.4-6.09-15.63-6.09-24.7s2.03-17.24,6.09-24.52c4.06-7.4,9.67-13.25,16.83-17.54,7.16-4.3,15.45-6.44,24.88-6.44s17.54,2.21,24.7,6.62c7.16,4.3,12.77,10.08,16.83,17.36,4.06,7.28,6.09,15.45,6.09,24.52s-2.03,17.3-6.09,24.7c-4.06,7.28-9.67,13.07-16.83,17.36-7.16,4.3-15.39,6.44-24.7,6.44ZM778.84,114.28c5.01,0,9.67-1.19,13.96-3.58,4.3-2.51,7.76-6.03,10.38-10.56,2.74-4.65,4.12-10.2,4.12-16.65s-1.37-11.93-4.12-16.47c-2.63-4.65-6.09-8.17-10.38-10.56-4.3-2.51-8.95-3.76-13.96-3.76s-9.73,1.25-14.14,3.76c-4.3,2.39-7.82,5.91-10.56,10.56-2.63,4.53-3.94,10.02-3.94,16.47s1.31,11.99,3.94,16.65c2.74,4.53,6.32,8.06,10.74,10.56,4.41,2.39,9.07,3.58,13.96,3.58Z"/>
        <path d="M679.63,132c-4.65,0-8.89-.72-12.71-2.15-3.82-1.43-7.16-3.28-10.02-5.55-2.74-2.39-4.95-4.83-6.62-7.34h-1.07v12.17h-18.26V.97h19.33v36.52l-1.07,12.71h1.07c1.67-2.63,3.88-5.07,6.62-7.34,2.86-2.39,6.21-4.3,10.02-5.73,3.82-1.43,8.06-2.15,12.71-2.15,8.35,0,15.81,2.09,22.38,6.26,6.56,4.18,11.75,9.9,15.57,17.18,3.94,7.28,5.91,15.63,5.91,25.06s-1.97,17.78-5.91,25.06c-3.82,7.28-9.01,13.01-15.57,17.18-6.56,4.18-14.02,6.26-22.38,6.26ZM676.77,114.28c4.77,0,9.25-1.25,13.42-3.76,4.3-2.51,7.7-6.09,10.2-10.74,2.62-4.65,3.94-10.08,3.94-16.29s-1.31-11.75-3.94-16.29c-2.51-4.65-5.91-8.23-10.2-10.74-4.18-2.51-8.65-3.76-13.42-3.76s-9.25,1.25-13.42,3.76-7.58,6.09-10.2,10.74c-2.63,4.53-3.94,9.96-3.94,16.29s1.31,11.81,3.94,16.47c2.62,4.54,6.03,8.06,10.2,10.56,4.18,2.51,8.65,3.76,13.42,3.76Z"/>
        <path d="M575.06,132c-8.95,0-16.94-2.09-23.99-6.26-7.04-4.18-12.59-9.9-16.65-17.18-3.94-7.28-5.91-15.57-5.91-24.88,0-8.71,1.91-16.77,5.73-24.17,3.82-7.4,9.13-13.31,15.93-17.72,6.92-4.53,14.86-6.8,23.81-6.8,9.43,0,17.42,2.03,23.99,6.09,6.68,4.06,11.75,9.61,15.21,16.65,3.46,7.04,5.19,14.98,5.19,23.81,0,1.31-.06,2.51-.18,3.58,0,1.07-.06,1.91-.18,2.51h-70.53c.48,5.01,1.73,9.37,3.76,13.07,2.62,4.65,6.09,8.17,10.38,10.56,4.3,2.39,8.95,3.58,13.96,3.58,6.09,0,11.16-1.37,15.21-4.12,4.18-2.86,7.46-6.38,9.85-10.56l15.93,7.7c-3.94,7.16-9.31,13.01-16.11,17.54-6.8,4.42-15.28,6.62-25.42,6.62ZM548.57,73.11h50.66c-.12-2.27-.72-4.65-1.79-7.16-1.07-2.63-2.62-5.01-4.65-7.16s-4.59-3.88-7.7-5.19c-3.1-1.43-6.74-2.15-10.92-2.15-5.25,0-9.91,1.37-13.96,4.12-4.06,2.63-7.22,6.32-9.49,11.1-.95,2.03-1.67,4.18-2.15,6.44Z"/>
        <path d="M466.03,37.85h15.93V12.07h19.33v25.78h22.38v16.83h-22.38v43.85c0,4.53.9,7.99,2.68,10.38,1.91,2.39,5.07,3.58,9.49,3.58,2.15,0,4.06-.3,5.73-.89,1.67-.72,3.34-1.55,5.01-2.51v18.8c-2.03.83-4.18,1.49-6.44,1.97-2.27.48-4.95.72-8.05.72-8.47,0-15.22-2.45-20.23-7.34-5.01-5.01-7.52-11.87-7.52-20.58v-47.97h-15.93v-16.83Z"/>
        <path d="M414.87,132c-9.43,0-17.72-2.15-24.88-6.44s-12.77-10.08-16.83-17.36c-4.06-7.4-6.09-15.63-6.09-24.7s2.03-17.24,6.09-24.52c4.06-7.4,9.67-13.25,16.83-17.54,7.16-4.3,15.45-6.44,24.88-6.44s17.54,2.21,24.7,6.62c7.16,4.3,12.77,10.08,16.83,17.36,4.06,7.28,6.09,15.45,6.09,24.52s-2.03,17.3-6.09,24.7c-4.06,7.28-9.67,13.07-16.83,17.36s-15.39,6.44-24.7,6.44ZM414.87,114.28c5.01,0,9.67-1.19,13.96-3.58,4.3-2.51,7.76-6.03,10.38-10.56,2.74-4.65,4.12-10.2,4.12-16.65s-1.37-11.93-4.12-16.47c-2.62-4.65-6.09-8.17-10.38-10.56-4.3-2.51-8.95-3.76-13.96-3.76s-9.73,1.25-14.14,3.76c-4.3,2.39-7.82,5.91-10.56,10.56-2.62,4.53-3.94,10.02-3.94,16.47s1.31,11.99,3.94,16.65c2.74,4.53,6.32,8.06,10.74,10.56,4.42,2.39,9.07,3.58,13.96,3.58Z"/>
        <path d="M252.55,129.13V.97h23.27l58,94.15h1.07l-1.07-24.7V.97h19.51v128.16h-20.41l-60.86-98.99h-1.07l1.07,24.7v74.29h-19.51Z"/>
        <path d="M87.27,1.14C39.07,1.14,0,39.88,0,87.69v41.44h16.09v-4.13c0-19.39,15.84-35.11,35.39-35.11s35.39,15.72,35.39,35.11v4.13h16.09v-4.13c0-28.2-23.05-51.05-51.48-51.05-11.07,0-21.32,3.46-29.72,9.37,8.79-17.32,26.88-29.21,47.77-29.21,29.51,0,53.44,23.74,53.44,53v22.02h16.09v-22.02c0-38.08-31.13-68.96-69.53-68.96-17.27,0-33.06,6.24-45.22,16.58,11.94-22.39,35.65-37.64,62.97-37.64,39.32,0,71.19,31.61,71.19,70.6v41.44h16.09v-41.44C174.55,39.88,135.48,1.14,87.27,1.14Z"/>
      </g>
    </g>
  </g>
</svg>